<?xml version="1.0" encoding="utf-8"?><!DOCTYPE svg PUBLIC "-//W3C//DTD SVG 1.1//EN" "http://www.w3.org/Graphics/SVG/1.1/DTD/svg11.dtd"><svg version="1.1" xmlns="http://www.w3.org/2000/svg" xmlns:xlink="http://www.w3.org/1999/xlink" x="0" y="0" width="210" height="80" viewBox="0 0 210 80"><title>Entity-Relationship-Modell</title><line fill="none" stroke="#000000" stroke-width="0.25" x1="63.135" y1="40.014" x2="100.775" y2="11.256"/><line fill="none" stroke="#000000" stroke-width="0.25" x1="59.311" y1="40.014" x2="58.823" y2="11.488"/><line fill="none" stroke="#000000" stroke-width="0.25" x1="60.389" y1="40.014" x2="70.574" y2="11.455"/><line fill="none" stroke="#000000" stroke-width="0.25" x1="55.388" y1="40.014" x2="15.589" y2="11.113"/><line fill="none" stroke="#000000" stroke-width="0.25" x1="58.184" y1="40.014" x2="46.534" y2="11.451"/><line fill="none" stroke="#000000" stroke-width="0.25" x1="56.761" y1="40.014" x2="30.938" y2="11.352"/><line fill="none" stroke="#000000" stroke-width="0.25" x1="160.837" y1="40.01" x2="176.108" y2="26.127"/><line fill="none" stroke="#000000" stroke-width="0.25" x1="162.867" y1="40.529" x2="195.478" y2="25.686"/><line fill="none" stroke="#000000" stroke-width="0.25" x1="152.457" y1="40.426" x2="122.071" y2="25.992"/><line fill="none" stroke="#000000" stroke-width="0.25" x1="154.141" y1="40.01" x2="137.626" y2="26.471"/><line fill="none" stroke="#000000" stroke-width="0.25" x1="156.784" y1="40.01" x2="152.734" y2="26.664"/><line fill="none" stroke="#000000" stroke-width="0.25" x1="159.075" y1="40.01" x2="165.64" y2="26.619"/><line fill="none" stroke="#000000" stroke-width="0.25" x1="61.662" y1="40.014" x2="84.551" y2="11.355"/><line fill="none" stroke="#000000" stroke-width="0.25" x1="107.74" y1="45.781" x2="97.723" y2="68.586"/><line fill="none" stroke="#000000" stroke-width="0.25" x1="109.037" y1="45.781" x2="109.274" y2="68.512"/><line fill="none" stroke="#000000" stroke-width="0.25" x1="110.157" y1="45.781" x2="119.241" y2="68.574"/><line fill="none" stroke="#000000" stroke-width="0.25" x1="65.729" y1="42.898" x2="76.158" y2="42.898"/><line fill="none" stroke="#000000" stroke-width="0.25" x1="93.059" y1="42.898" x2="103.809" y2="42.898"/><line fill="none" stroke="#000000" stroke-width="0.25" x1="152.456" y1="42.898" x2="142.534" y2="42.898"/><line fill="none" stroke="#000000" stroke-width="0.25" x1="124.453" y1="42.898" x2="114.212" y2="42.898"/><line fill="none" stroke="#000000" stroke-width="0.25" x1="133.494" y1="48.381" x2="133.494" y2="56.051"/><line fill="none" stroke="#000000" stroke-width="0.25" x1="84.612" y1="48.025" x2="84.612" y2="55.896"/><line fill="none" stroke="#000000" stroke-width="0.25" x1="162.332" y1="40.01" x2="185.014" y2="25.99"/><rect x="103.955" y="40.162" fill="#FFFF00" width="10.104" height="5.471"/><rect x="103.955" y="40.162" fill="none" stroke="#000000" stroke-width="0.25" width="10.104" height="5.471"/><text transform="matrix(1 0 0 1 106.0908 43.5059)" font-family="'monospace'" font-size="1.9449">class</text><ellipse fill="#AED9E7" cx="96.487" cy="71.396" rx="7.134" ry="2.735"/><ellipse fill="none" stroke="#000000" stroke-width="0.25" cx="96.487" cy="71.396" rx="7.134" ry="2.735"/><text transform="matrix(1 0 0 1 92.4033 72.0039)" font-family="'monospace'" font-size="1.9449">room_id</text><line fill="none" stroke="#000000" stroke-width="0.25" x1="92.394" y1="72.611" x2="100.582" y2="72.611"/><ellipse fill="#AED9E7" cx="109.305" cy="71.396" rx="5.379" ry="2.735"/><ellipse fill="none" stroke="#000000" stroke-width="0.25" cx="109.305" cy="71.396" rx="5.379" ry="2.735"/><text transform="matrix(1 0 0 1 106.9707 72.0039)" font-family="'monospace'" font-size="1.9449">name</text><ellipse fill="#AED9E7" cx="120.365" cy="71.396" rx="5.379" ry="2.735"/><ellipse fill="none" stroke="#000000" stroke-width="0.25" cx="120.365" cy="71.396" rx="5.379" ry="2.735"/><text transform="matrix(1 0 0 1 118.0322 72.0039)" font-family="'monospace'" font-size="1.9449">type</text><rect x="152.609" y="40.162" fill="#FFFF00" width="10.104" height="5.471"/><rect x="152.609" y="40.162" fill="none" stroke="#000000" stroke-width="0.25" width="10.104" height="5.471"/><text transform="matrix(1 0 0 1 154.7441 43.5059)" font-family="'monospace'" font-size="1.9449">pupil</text><ellipse fill="#AED9E7" cx="199.621" cy="23.799" rx="5.379" ry="2.734"/><ellipse fill="none" stroke="#000000" stroke-width="0.25" cx="199.621" cy="23.799" rx="5.379" ry="2.734"/><text transform="matrix(1 0 0 1 197.2881 24.4067)" font-family="'monospace'" font-size="1.9449">name</text><ellipse fill="#AED9E7" cx="117.456" cy="23.799" rx="7.135" ry="2.734"/><ellipse fill="none" stroke="#000000" stroke-width="0.25" cx="117.456" cy="23.799" rx="7.135" ry="2.734"/><text transform="matrix(1 0 0 1 113.3721 24.4067)" font-family="'monospace'" font-size="1.9449">surname</text><ellipse fill="#AED9E7" cx="134.367" cy="23.799" rx="9.476" ry="2.734"/><ellipse fill="none" stroke="#000000" stroke-width="0.25" cx="134.367" cy="23.799" rx="9.476" ry="2.734"/><text transform="matrix(1 0 0 1 127.9492 24.4067)" font-family="'monospace'" font-size="1.9449">elem_school</text><ellipse fill="#AED9E7" cx="151.864" cy="23.799" rx="7.719" ry="2.734"/><ellipse fill="none" stroke="#000000" stroke-width="0.25" cx="151.864" cy="23.799" rx="7.719" ry="2.734"/><text transform="matrix(1 0 0 1 147.1973 24.4067)" font-family="'monospace'" font-size="1.9449">birthday</text><ellipse fill="#AED9E7" cx="167.022" cy="23.799" rx="7.133" ry="2.734"/><ellipse fill="none" stroke="#000000" stroke-width="0.25" cx="167.022" cy="23.799" rx="7.133" ry="2.734"/><text transform="matrix(1 0 0 1 162.9375 24.4067)" font-family="'monospace'" font-size="1.9449">address</text><ellipse fill="#AED9E7" cx="178.668" cy="23.799" rx="4.209" ry="2.734"/><ellipse fill="none" stroke="#000000" stroke-width="0.25" cx="178.668" cy="23.799" rx="4.209" ry="2.734"/><text transform="matrix(1 0 0 1 177.502 24.4067)" font-family="'monospace'" font-size="1.9449">id</text><line fill="none" stroke="#000000" stroke-width="0.25" x1="177.498" y1="25.014" x2="179.839" y2="25.014"/><ellipse fill="#AED9E7" cx="188.561" cy="23.799" rx="5.379" ry="2.734"/><ellipse fill="none" stroke="#000000" stroke-width="0.25" cx="188.561" cy="23.799" rx="5.379" ry="2.734"/><text transform="matrix(1 0 0 1 186.2266 24.4067)" font-family="'monospace'" font-size="1.9449">year</text><rect x="53.138" y="40.162" fill="#FFFF00" width="12.443" height="5.471"/><rect x="53.138" y="40.162" fill="none" stroke="#000000" stroke-width="0.25" width="12.443" height="5.471"/><text transform="matrix(1 0 0 1 55.2754 43.5059)" font-family="'monospace'" font-size="1.9449">teacher</text><ellipse fill="#AED9E7" cx="104.244" cy="8.604" rx="9.475" ry="2.735"/><ellipse fill="none" stroke="#000000" stroke-width="0.25" cx="104.244" cy="8.604" rx="9.475" ry="2.735"/><text transform="matrix(1 0 0 1 97.8262 9.2124)" font-family="'monospace'" font-size="1.9449">personal_id</text><line fill="none" stroke="#000000" stroke-width="0.25" x1="97.811" y1="9.82" x2="110.68" y2="9.82"/><ellipse fill="#AED9E7" cx="58.775" cy="8.604" rx="5.378" ry="2.735"/><ellipse fill="none" stroke="#000000" stroke-width="0.25" cx="58.775" cy="8.604" rx="5.378" ry="2.735"/><text transform="matrix(1 0 0 1 56.4404 9.2124)" font-family="'monospace'" font-size="1.9449">name</text><ellipse fill="#AED9E7" cx="71.592" cy="8.604" rx="7.134" ry="2.735"/><ellipse fill="none" stroke="#000000" stroke-width="0.25" cx="71.592" cy="8.604" rx="7.134" ry="2.735"/><text transform="matrix(1 0 0 1 67.5068 9.2124)" font-family="'monospace'" font-size="1.9449">surname</text><ellipse fill="#AED9E7" cx="45.372" cy="8.604" rx="7.72" ry="2.735"/><ellipse fill="none" stroke="#000000" stroke-width="0.25" cx="45.372" cy="8.604" rx="7.72" ry="2.735"/><text transform="matrix(1 0 0 1 40.7051 9.2124)" font-family="'monospace'" font-size="1.9449">birthday</text><ellipse fill="#AED9E7" cx="12.135" cy="8.604" rx="7.134" ry="2.735"/><ellipse fill="none" stroke="#000000" stroke-width="0.25" cx="12.135" cy="8.604" rx="7.134" ry="2.735"/><text transform="matrix(1 0 0 1 8.0498 9.2124)" font-family="'monospace'" font-size="1.9449">address</text><ellipse fill="#AED9E7" cx="28.461" cy="8.604" rx="8.89" ry="2.735"/><ellipse fill="none" stroke="#000000" stroke-width="0.25" cx="28.461" cy="8.604" rx="8.89" ry="2.735"/><text transform="matrix(1 0 0 1 22.626 9.2124)" font-family="'monospace'" font-size="1.9449">entry_date</text><ellipse fill="#AED9E7" cx="86.747" cy="8.604" rx="7.721" ry="2.735"/><ellipse fill="none" stroke="#000000" stroke-width="0.25" cx="86.747" cy="8.604" rx="7.721" ry="2.735"/><text transform="matrix(1 0 0 1 82.0801 9.2124)" font-family="'monospace'" font-size="1.9449">subjects</text><polygon fill="#E6E6E6" points="76.31,42.898 84.612,37.916 92.916,42.898 84.612,47.881 "/><polygon fill="none" stroke="#000000" stroke-width="0.25" points="76.31,42.898 84.612,37.916 92.916,42.898 84.612,47.881 "/><text transform="matrix(1 0 0 1 74.2314 41.9863)" font-family="'monospace'" font-size="1.9449">m</text><text transform="matrix(1 0 0 1 93.8291 41.9863)" font-family="'monospace'" font-size="1.9449">m</text><text transform="matrix(1 0 0 1 79.3613 43.5059)" font-family="'monospace'" font-size="1.9449">teachings</text><ellipse fill="#AED9E7" cx="84.612" cy="58.784" rx="10.061" ry="2.735"/><ellipse fill="none" stroke="#000000" stroke-width="0.25" cx="84.612" cy="58.784" rx="10.061" ry="2.735"/><text transform="matrix(1 0 0 1 77.6104 59.3926)" font-family="'monospace'" font-size="1.9449">form_teacher</text><polygon fill="#E6E6E6" points="124.605,42.898 133.494,37.564 142.384,42.898 133.494,48.23 "/><polygon fill="none" stroke="#000000" stroke-width="0.25" points="124.605,42.898 133.494,37.564 142.384,42.898 133.494,48.23 "/><text transform="matrix(1 0 0 1 122.5273 41.9863)" font-family="'monospace'" font-size="1.9449">m</text><text transform="matrix(1 0 0 1 143.2959 41.9863)" font-family="'monospace'" font-size="1.9449">1</text><text transform="matrix(1 0 0 1 127.6592 43.5059)" font-family="'monospace'" font-size="1.9449">attendance</text><ellipse fill="#AED9E7" cx="133.494" cy="58.937" rx="7.72" ry="2.735"/><ellipse fill="none" stroke="#000000" stroke-width="0.25" cx="133.494" cy="58.937" rx="7.72" ry="2.735"/><text transform="matrix(1 0 0 1 128.8262 59.5449)" font-family="'monospace'" font-size="1.9449">class_id</text></svg>