<?xml version="1.0" encoding="UTF-8"?><svg xmlns="http://www.w3.org/2000/svg" xmlns:xlink="http://www.w3.org/1999/xlink" width="375pt" zoomAndPan="magnify" viewBox="0 0 375 374.999991" height="374.999991pt" preserveAspectRatio="xMidYMid meet" version="1.2"><defs><g/><clipPath xml:id="clip1" id="clip1"><path d="M 24.347656 34.058594 L 350.597656 34.058594 L 350.597656 340.808594 L 24.347656 340.808594 Z M 24.347656 34.058594 "/></clipPath></defs><g xml:id="surface1" id="surface1"><rect x="0" width="375" y="0" height="374.999991" style="fill:rgb(100%,100%,100%);fill-opacity:1;stroke:none;"/><rect x="0" width="375" y="0" height="374.999991" style="fill:rgb(100%,100%,100%);fill-opacity:1;stroke:none;"/><rect x="0" width="375" y="0" height="374.999991" style="fill:rgb(49.01886%,50.19989%,85.488892%);fill-opacity:1;stroke:none;"/><g clip-rule="nonzero" clip-path="url(#clip1)"><path style=" stroke:none;fill-rule:nonzero;fill:rgb(0%,0%,0%);fill-opacity:1;" d="M 24.347656 34.058594 L 350.597656 34.058594 L 350.597656 340.808594 L 24.347656 340.808594 Z M 24.347656 34.058594 "/></g><g style="fill:rgb(100%,100%,100%);fill-opacity:1;"><g transform="translate(42.100209, 231.447466)"><path style="stroke:none;" d="M 18.140625 0 L 7.234375 0 L 7.234375 -58.421875 L 18.140625 -58.421875 Z M 18.140625 0 "/></g></g><g style="fill:rgb(100%,100%,100%);fill-opacity:1;"><g transform="translate(67.475125, 231.447466)"><path style="stroke:none;" d="M 11.59375 -58.421875 C 12.082031 -58.421875 12.488281 -58.398438 12.8125 -58.359375 C 13.132812 -58.328125 13.421875 -58.25 13.671875 -58.125 C 13.929688 -58 14.179688 -57.820312 14.421875 -57.59375 C 14.660156 -57.363281 14.929688 -57.0625 15.234375 -56.6875 L 45.90625 -17.609375 C 45.789062 -18.554688 45.710938 -19.476562 45.671875 -20.375 C 45.640625 -21.28125 45.625 -22.125 45.625 -22.90625 L 45.625 -58.421875 L 55.1875 -58.421875 L 55.1875 0 L 49.578125 0 C 48.710938 0 48 -0.132812 47.4375 -0.40625 C 46.875 -0.675781 46.320312 -1.160156 45.78125 -1.859375 L 15.234375 -40.765625 C 15.316406 -39.910156 15.375 -39.054688 15.40625 -38.203125 C 15.445312 -37.359375 15.46875 -36.582031 15.46875 -35.875 L 15.46875 0 L 5.90625 0 L 5.90625 -58.421875 Z M 11.59375 -58.421875 "/></g></g><g style="fill:rgb(100%,100%,100%);fill-opacity:1;"><g transform="translate(128.568887, 231.447466)"><path style="stroke:none;" d="M 42.75 -58.421875 L 42.75 -49.78125 L 16.84375 -49.78125 L 16.84375 -32.484375 L 38.703125 -32.484375 L 38.703125 -23.796875 L 16.84375 -23.796875 L 16.84375 0 L 5.90625 0 L 5.90625 -58.421875 Z M 42.75 -58.421875 "/></g></g><g style="fill:rgb(100%,100%,100%);fill-opacity:1;"><g transform="translate(173.944739, 231.447466)"><path style="stroke:none;" d="M 61.9375 -29.21875 C 61.9375 -24.9375 61.222656 -20.96875 59.796875 -17.3125 C 58.367188 -13.664062 56.363281 -10.507812 53.78125 -7.84375 C 51.195312 -5.175781 48.082031 -3.09375 44.4375 -1.59375 C 40.800781 -0.101562 36.773438 0.640625 32.359375 0.640625 C 27.941406 0.640625 23.90625 -0.101562 20.25 -1.59375 C 16.601562 -3.09375 13.476562 -5.175781 10.875 -7.84375 C 8.28125 -10.507812 6.269531 -13.664062 4.84375 -17.3125 C 3.414062 -20.96875 2.703125 -24.9375 2.703125 -29.21875 C 2.703125 -33.5 3.414062 -37.460938 4.84375 -41.109375 C 6.269531 -44.765625 8.28125 -47.925781 10.875 -50.59375 C 13.476562 -53.257812 16.601562 -55.335938 20.25 -56.828125 C 23.90625 -58.328125 27.941406 -59.078125 32.359375 -59.078125 C 36.773438 -59.078125 40.800781 -58.320312 44.4375 -56.8125 C 48.082031 -55.300781 51.195312 -53.21875 53.78125 -50.5625 C 56.363281 -47.914062 58.367188 -44.765625 59.796875 -41.109375 C 61.222656 -37.460938 61.9375 -33.5 61.9375 -29.21875 Z M 50.796875 -29.21875 C 50.796875 -32.414062 50.367188 -35.285156 49.515625 -37.828125 C 48.671875 -40.378906 47.453125 -42.546875 45.859375 -44.328125 C 44.273438 -46.109375 42.34375 -47.46875 40.0625 -48.40625 C 37.789062 -49.351562 35.222656 -49.828125 32.359375 -49.828125 C 29.503906 -49.828125 26.929688 -49.351562 24.640625 -48.40625 C 22.359375 -47.46875 20.414062 -46.109375 18.8125 -44.328125 C 17.207031 -42.546875 15.972656 -40.378906 15.109375 -37.828125 C 14.242188 -35.285156 13.8125 -32.414062 13.8125 -29.21875 C 13.8125 -26.007812 14.242188 -23.128906 15.109375 -20.578125 C 15.972656 -18.035156 17.207031 -15.878906 18.8125 -14.109375 C 20.414062 -12.347656 22.359375 -10.992188 24.640625 -10.046875 C 26.929688 -9.109375 29.503906 -8.640625 32.359375 -8.640625 C 35.222656 -8.640625 37.789062 -9.109375 40.0625 -10.046875 C 42.34375 -10.992188 44.273438 -12.347656 45.859375 -14.109375 C 47.453125 -15.878906 48.671875 -18.035156 49.515625 -20.578125 C 50.367188 -23.128906 50.796875 -26.007812 50.796875 -29.21875 Z M 50.796875 -29.21875 "/></g></g><g style="fill:rgb(100%,100%,100%);fill-opacity:1;"><g transform="translate(42.100209, 317.091711)"><path style="stroke:none;" d="M 19.671875 -10.515625 L 47.109375 -10.515625 L 47.109375 0 L 6.921875 0 L 6.921875 -68.53125 L 19.671875 -68.53125 Z M 19.671875 -10.515625 "/></g></g><g style="fill:rgb(100%,100%,100%);fill-opacity:1;"><g transform="translate(91.098151, 317.091711)"><path style="stroke:none;" d="M 20.09375 -39.8125 L 23.078125 -39.8125 C 24.273438 -39.8125 25.269531 -39.972656 26.0625 -40.296875 C 26.851562 -40.628906 27.535156 -41.160156 28.109375 -41.890625 L 47.015625 -65.828125 C 47.804688 -66.835938 48.632812 -67.539062 49.5 -67.9375 C 50.363281 -68.332031 51.460938 -68.53125 52.796875 -68.53125 L 63.78125 -68.53125 L 40.703125 -40.046875 C 39.984375 -39.160156 39.289062 -38.414062 38.625 -37.8125 C 37.957031 -37.21875 37.242188 -36.726562 36.484375 -36.34375 C 37.535156 -35.96875 38.476562 -35.429688 39.3125 -34.734375 C 40.144531 -34.035156 40.957031 -33.148438 41.75 -32.078125 L 65.546875 0 L 54.265625 0 C 52.742188 0 51.613281 -0.210938 50.875 -0.640625 C 50.132812 -1.066406 49.507812 -1.691406 49 -2.515625 L 29.625 -27.8125 C 28.988281 -28.632812 28.273438 -29.226562 27.484375 -29.59375 C 26.691406 -29.957031 25.570312 -30.140625 24.125 -30.140625 L 20.09375 -30.140625 L 20.09375 0 L 7.34375 0 L 7.34375 -68.578125 L 20.09375 -68.578125 Z M 20.09375 -39.8125 "/></g></g><g style="fill:rgb(100%,100%,100%);fill-opacity:1;"><g transform="translate(157.250106, 317.091711)"><path style="stroke:none;" d="M 12.75 -8.765625 L 26.640625 -8.765625 L 26.640625 -48.71875 C 26.640625 -50.269531 26.6875 -51.894531 26.78125 -53.59375 L 16.921875 -45.359375 C 16.503906 -45.003906 16.082031 -44.765625 15.65625 -44.640625 C 15.226562 -44.515625 14.8125 -44.453125 14.40625 -44.453125 C 13.769531 -44.453125 13.191406 -44.585938 12.671875 -44.859375 C 12.148438 -45.128906 11.765625 -45.4375 11.515625 -45.78125 L 7.8125 -50.84375 L 28.71875 -68.625 L 38.34375 -68.625 L 38.34375 -8.765625 L 50.65625 -8.765625 L 50.65625 0 L 12.75 0 Z M 12.75 -8.765625 "/></g></g><g style="fill:rgb(100%,100%,100%);fill-opacity:1;"><g transform="translate(212.218783, 317.091711)"><path style="stroke:none;" d="M 28.53125 -69.28125 C 31.6875 -69.28125 34.578125 -68.8125 37.203125 -67.875 C 39.828125 -66.945312 42.070312 -65.628906 43.9375 -63.921875 C 45.800781 -62.222656 47.253906 -60.171875 48.296875 -57.765625 C 49.335938 -55.367188 49.859375 -52.703125 49.859375 -49.765625 C 49.859375 -47.234375 49.484375 -44.894531 48.734375 -42.75 C 47.992188 -40.601562 47 -38.546875 45.75 -36.578125 C 44.507812 -34.617188 43.050781 -32.722656 41.375 -30.890625 C 39.695312 -29.066406 37.941406 -27.207031 36.109375 -25.3125 L 20.65625 -9.53125 C 22.175781 -9.96875 23.660156 -10.304688 25.109375 -10.546875 C 26.566406 -10.785156 27.957031 -10.90625 29.28125 -10.90625 L 46.875 -10.90625 C 48.132812 -10.90625 49.132812 -10.546875 49.875 -9.828125 C 50.625 -9.117188 51 -8.179688 51 -7.015625 L 51 0 L 3.984375 0 L 3.984375 -3.890625 C 3.984375 -4.679688 4.144531 -5.5 4.46875 -6.34375 C 4.800781 -7.195312 5.332031 -7.988281 6.0625 -8.71875 L 26.875 -29.578125 C 28.613281 -31.335938 30.164062 -33.023438 31.53125 -34.640625 C 32.90625 -36.253906 34.054688 -37.847656 34.984375 -39.421875 C 35.921875 -41.003906 36.632812 -42.609375 37.125 -44.234375 C 37.613281 -45.867188 37.859375 -47.582031 37.859375 -49.375 C 37.859375 -51.019531 37.617188 -52.46875 37.140625 -53.71875 C 36.671875 -54.96875 35.992188 -56.015625 35.109375 -56.859375 C 34.234375 -57.710938 33.1875 -58.351562 31.96875 -58.78125 C 30.75 -59.207031 29.378906 -59.421875 27.859375 -59.421875 C 25.046875 -59.421875 22.734375 -58.707031 20.921875 -57.28125 C 19.109375 -55.863281 17.835938 -53.957031 17.109375 -51.5625 C 16.765625 -50.363281 16.242188 -49.503906 15.546875 -48.984375 C 14.847656 -48.460938 13.960938 -48.203125 12.890625 -48.203125 C 12.410156 -48.203125 11.890625 -48.25 11.328125 -48.34375 L 5.171875 -49.421875 C 5.640625 -52.710938 6.550781 -55.597656 7.90625 -58.078125 C 9.269531 -60.554688 10.96875 -62.625 13 -64.28125 C 15.039062 -65.945312 17.378906 -67.195312 20.015625 -68.03125 C 22.660156 -68.863281 25.5 -69.28125 28.53125 -69.28125 Z M 28.53125 -69.28125 "/></g></g></g></svg>